<svg width="1031" height="342" viewBox="0 0 1031 342" fill="none" xmlns="http://www.w3.org/2000/svg">
<g filter="url(#filter0_d_83_374)">
<path d="M384.619 212.661V216.15H370.336V227.227H381.932V230.715H370.336V245.517H366.046V212.661H384.619ZM399.51 223.88C400.264 222.403 401.333 221.256 402.715 220.439C404.129 219.622 405.842 219.214 407.853 219.214V223.645H406.722C401.914 223.645 399.51 226.253 399.51 231.47V245.517H395.22V219.685H399.51V223.88ZM441.795 231.611C441.795 232.428 441.748 233.292 441.654 234.204H421.007C421.164 236.749 422.029 238.745 423.6 240.19C425.203 241.604 427.135 242.311 429.398 242.311C431.252 242.311 432.792 241.887 434.017 241.039C435.274 240.159 436.154 238.996 436.657 237.55H441.277C440.585 240.033 439.203 242.06 437.129 243.631C435.054 245.171 432.478 245.941 429.398 245.941C426.947 245.941 424.747 245.391 422.798 244.291C420.882 243.191 419.373 241.636 418.273 239.624C417.173 237.582 416.623 235.225 416.623 232.554C416.623 229.883 417.158 227.541 418.226 225.53C419.295 223.519 420.787 221.979 422.704 220.911C424.653 219.811 426.884 219.261 429.398 219.261C431.849 219.261 434.017 219.795 435.903 220.863C437.788 221.932 439.234 223.409 440.24 225.294C441.277 227.149 441.795 229.254 441.795 231.611ZM437.364 230.715C437.364 229.081 437.003 227.683 436.28 226.52C435.557 225.326 434.567 224.43 433.31 223.833C432.085 223.205 430.718 222.89 429.209 222.89C427.041 222.89 425.187 223.582 423.647 224.964C422.139 226.347 421.274 228.264 421.054 230.715H437.364ZM462.023 245.941C460.043 245.941 458.268 245.611 456.696 244.951C455.125 244.26 453.884 243.317 452.973 242.123C452.061 240.897 451.558 239.499 451.464 237.928H455.895C456.021 239.216 456.618 240.269 457.686 241.086C458.786 241.903 460.216 242.311 461.976 242.311C463.61 242.311 464.899 241.95 465.841 241.227C466.784 240.504 467.255 239.593 467.255 238.493C467.255 237.362 466.753 236.529 465.747 235.995C464.741 235.429 463.186 234.879 461.08 234.345C459.163 233.842 457.592 233.339 456.366 232.837C455.172 232.302 454.135 231.532 453.255 230.527C452.407 229.49 451.983 228.138 451.983 226.473C451.983 225.153 452.375 223.943 453.161 222.843C453.947 221.743 455.062 220.879 456.508 220.251C457.953 219.591 459.603 219.261 461.457 219.261C464.317 219.261 466.627 219.984 468.387 221.429C470.147 222.875 471.089 224.854 471.215 227.369H466.925C466.831 226.017 466.281 224.933 465.276 224.116C464.301 223.299 462.982 222.89 461.316 222.89C459.776 222.89 458.551 223.22 457.639 223.88C456.728 224.54 456.272 225.404 456.272 226.473C456.272 227.321 456.539 228.028 457.074 228.594C457.639 229.128 458.331 229.568 459.148 229.914C459.996 230.228 461.159 230.59 462.636 230.998C464.49 231.501 465.998 232.004 467.161 232.507C468.324 232.978 469.314 233.701 470.131 234.675C470.979 235.649 471.419 236.922 471.451 238.493C471.451 239.907 471.058 241.18 470.272 242.311C469.487 243.443 468.371 244.338 466.925 244.998C465.511 245.627 463.877 245.941 462.023 245.941ZM495.749 219.214C497.697 219.214 499.457 219.638 501.028 220.486C502.599 221.303 503.825 222.545 504.705 224.21C505.616 225.876 506.072 227.903 506.072 230.291V245.517H501.83V230.904C501.83 228.327 501.185 226.363 499.897 225.012C498.608 223.629 496.849 222.938 494.617 222.938C492.355 222.938 490.548 223.645 489.196 225.059C487.877 226.473 487.217 228.531 487.217 231.234V245.517H482.927V210.634H487.217V223.362C488.065 222.042 489.228 221.021 490.705 220.298C492.213 219.575 493.895 219.214 495.749 219.214ZM569.815 212.897V245.517H565.525V221.193L554.683 245.517H551.667L540.778 221.146V245.517H536.488V212.897H541.108L553.175 239.86L565.242 212.897H569.815ZM606.08 231.611C606.08 232.428 606.032 233.292 605.938 234.204H585.292C585.449 236.749 586.313 238.745 587.884 240.19C589.487 241.604 591.42 242.311 593.682 242.311C595.536 242.311 597.076 241.887 598.302 241.039C599.559 240.159 600.439 238.996 600.941 237.55H605.561C604.87 240.033 603.487 242.06 601.413 243.631C599.339 245.171 596.762 245.941 593.682 245.941C591.231 245.941 589.031 245.391 587.083 244.291C585.166 243.191 583.657 241.636 582.558 239.624C581.458 237.582 580.908 235.225 580.908 232.554C580.908 229.883 581.442 227.541 582.51 225.53C583.579 223.519 585.072 221.979 586.989 220.911C588.937 219.811 591.168 219.261 593.682 219.261C596.133 219.261 598.302 219.795 600.187 220.863C602.073 221.932 603.518 223.409 604.524 225.294C605.561 227.149 606.08 229.254 606.08 231.611ZM601.649 230.715C601.649 229.081 601.287 227.683 600.564 226.52C599.842 225.326 598.852 224.43 597.595 223.833C596.369 223.205 595.002 222.89 593.494 222.89C591.325 222.89 589.471 223.582 587.931 224.964C586.423 226.347 585.559 228.264 585.339 230.715H601.649ZM615.56 232.507C615.56 229.867 616.094 227.557 617.163 225.577C618.231 223.566 619.692 222.01 621.546 220.911C623.432 219.811 625.522 219.261 627.816 219.261C630.079 219.261 632.043 219.748 633.708 220.722C635.374 221.696 636.615 222.922 637.432 224.399V219.685H641.769V245.517H637.432V240.709C636.584 242.217 635.311 243.474 633.614 244.48C631.948 245.454 630 245.941 627.769 245.941C625.475 245.941 623.401 245.375 621.546 244.244C619.692 243.113 618.231 241.526 617.163 239.483C616.094 237.44 615.56 235.115 615.56 232.507ZM637.432 232.554C637.432 230.605 637.039 228.908 636.254 227.463C635.468 226.017 634.4 224.917 633.048 224.163C631.728 223.377 630.267 222.985 628.664 222.985C627.062 222.985 625.6 223.362 624.28 224.116C622.961 224.87 621.908 225.97 621.122 227.416C620.337 228.861 619.944 230.558 619.944 232.507C619.944 234.486 620.337 236.215 621.122 237.692C621.908 239.137 622.961 240.253 624.28 241.039C625.6 241.793 627.062 242.17 628.664 242.17C630.267 242.17 631.728 241.793 633.048 241.039C634.4 240.253 635.468 239.137 636.254 237.692C637.039 236.215 637.432 234.502 637.432 232.554ZM659.671 223.22V238.446C659.671 239.703 659.938 240.599 660.472 241.133C661.007 241.636 661.934 241.887 663.254 241.887H666.412V245.517H662.546C660.158 245.517 658.367 244.967 657.173 243.867C655.979 242.767 655.381 240.96 655.381 238.446V223.22H652.035V219.685H655.381V213.18H659.671V219.685H666.412V223.22H659.671Z" fill="#2D2D2D"/>
<path d="M703.585 225.336H799.04H873.872L703.585 233.585V225.336Z" fill="#F7A399"/>
<path d="M327.657 233.585H232.202L157.37 233.585L327.657 225.336V233.585Z" fill="#F7A399"/>
<path d="M376.524 99.6293C376.029 98.8446 376.593 97.822 377.521 97.822H390.821C391.222 97.822 391.596 98.0259 391.812 98.3632L406.767 121.626C406.9 121.833 406.965 122.075 406.953 122.32L405.822 146.065L376.524 99.6293Z" fill="#2D2D2D"/>
<path d="M405.855 163.295C409.301 163.154 408.152 163.295 413.896 169.038C416.205 171.347 421.936 171.335 421.936 171.335V179.376H405.855C405.855 179.376 404.706 163.342 405.855 163.295Z" fill="#2D2D2D"/>
<path d="M405.275 154.106C402.803 157.069 396.086 159.849 397.235 159.849C397.235 159.849 400.931 161.998 403.552 162.146C405.836 162.275 409.295 160.998 409.295 160.998C409.295 160.998 411.591 165.019 413.89 166.741C416.39 168.614 421.356 169.612 421.356 169.612C421.356 169.612 418.238 165.235 416.762 162.146C415.324 159.138 413.89 154.106 413.89 154.106C413.89 154.106 410.467 138.025 413.89 127.687C415.562 122.64 417.162 119.862 420.208 115.626C423.449 111.118 430.545 105.863 430.545 105.863C430.545 105.863 435.301 103.563 438.586 102.991C441.9 102.415 447.201 102.991 447.201 102.991C447.201 102.991 449.919 107.33 450.646 110.458C451.459 113.953 450.646 119.647 450.646 119.647C450.646 119.647 449.158 125.872 447.201 129.41C445.572 132.354 442.032 136.302 442.032 136.302L436.863 129.41C436.863 129.41 436.877 135.515 435.714 139.174C434.467 143.097 430.545 148.363 430.545 148.363C430.545 148.363 437.067 144.843 440.883 142.045C444.984 139.039 450.646 133.43 450.646 133.43C450.646 133.43 453.533 130.179 454.667 127.687C455.997 124.764 455.948 124.416 456.964 121.37C457.538 119.647 457.594 114.098 456.964 109.884C456.553 107.14 455.751 104.396 454.667 101.843C453.524 99.1512 450.646 95.5253 450.646 95.5253C450.646 95.5253 442.606 93.2799 435.714 95.5253C431.799 96.8008 428.096 98.2231 424.802 100.694C421.25 103.359 419.523 105.257 416.762 108.735C414.75 111.268 413.582 112.718 412.167 115.626C410.429 119.201 410.121 121.502 409.295 125.39C407.661 133.081 408.147 145.491 408.147 145.491C408.147 145.491 407.524 151.41 405.275 154.106Z" fill="#2D2D2D"/>
<path d="M420.202 122.519L413.885 127.113C413.885 127.113 416.193 121.846 417.905 118.498C420.011 114.382 422.402 112.28 425.946 109.309C429.485 106.342 432.44 104.339 436.858 102.992C440.304 101.941 447.195 102.992 447.195 102.992C447.195 102.992 449.089 105.864 450.067 108.735C450.663 110.486 451.216 112.054 451.216 113.904C451.216 115.753 451.317 117.135 450.067 118.498C448.521 120.184 446.621 120.796 444.324 120.796C441.184 120.796 439.386 120.13 436.283 119.647C434.456 119.363 433.522 118.746 431.689 118.498C429.466 118.198 428.105 117.891 425.946 118.498C423.31 119.239 420.202 122.519 420.202 122.519Z" fill="url(#paint0_linear_83_374)"/>
<circle cx="436.857" cy="112.755" r="2.87159" fill="white"/>
<path d="M439.633 107.108C439.309 106.725 439.581 106.138 440.083 106.138L445.639 106.138C445.984 106.138 446.255 106.432 446.226 106.775L445.732 112.759C445.689 113.282 445.034 113.492 444.695 113.091L439.633 107.108Z" fill="white"/>
<path d="M516.135 102.775H565.11" stroke="#2D2D2D" stroke-width="10.5209" stroke-linecap="round"/>
<path d="M548.716 128.893C550.961 125.938 557.291 122.97 556.187 123.021C556.187 123.021 552.541 121.119 550.016 121.092C547.817 121.069 544.55 122.449 544.55 122.449C544.55 122.449 542.166 118.688 539.882 117.135C537.397 115.446 532.582 114.705 532.582 114.705C532.582 114.705 535.771 118.773 537.326 121.676C538.84 124.502 540.439 129.274 540.439 129.274C540.439 129.274 544.438 144.572 541.606 154.655C540.223 159.578 538.807 162.317 536.069 166.521C533.153 170.996 526.568 176.357 526.568 176.357C526.568 176.357 522.101 178.777 518.97 179.471C515.811 180.172 510.693 179.852 510.693 179.852C510.693 179.852 507.89 175.804 507.053 172.831C506.118 169.508 506.647 164.002 506.647 164.002C506.647 164.002 507.802 157.955 509.527 154.47C510.962 151.57 514.189 147.621 514.189 147.621L519.459 154.014C519.459 154.014 519.176 148.149 520.131 144.583C521.156 140.758 524.692 135.527 524.692 135.527C524.692 135.527 518.581 139.196 515.039 142.052C511.232 145.122 506.039 150.76 506.039 150.76C506.039 150.76 503.409 154.011 502.43 156.455C501.281 159.322 501.343 159.654 500.502 162.626C500.026 164.306 500.217 169.64 501.009 173.661C501.524 176.279 502.417 178.879 503.571 181.285C504.788 183.82 507.712 187.177 507.712 187.177C507.712 187.177 515.536 188.979 522.058 186.517C525.763 185.119 529.259 183.589 532.314 181.07C535.609 178.353 537.184 176.453 539.684 172.99C541.504 170.468 542.563 169.023 543.793 166.166C545.306 162.655 545.5 160.431 546.122 156.659C547.352 149.198 546.337 137.297 546.337 137.297C546.337 137.297 546.674 131.582 548.716 128.893Z" fill="#2D2D2D"/>
<path d="M535.764 159.9L541.631 155.206C541.631 155.206 539.646 160.369 538.148 163.661C536.307 167.708 534.102 169.834 530.829 172.844C527.56 175.851 524.809 177.906 520.625 179.395C517.36 180.557 510.693 179.851 510.693 179.851C510.693 179.851 508.746 177.176 507.68 174.46C507.031 172.805 506.43 171.322 506.349 169.545C506.267 167.768 506.108 166.445 507.249 165.08C508.66 163.393 510.459 162.721 512.666 162.62C515.682 162.481 517.439 163.042 520.441 163.368C522.209 163.561 523.134 164.112 524.906 164.269C527.055 164.459 528.376 164.694 530.424 164.016C532.923 163.187 535.764 159.9 535.764 159.9Z" fill="url(#paint1_linear_83_374)"/>
<circle cx="520.193" cy="170.015" r="2.76176" transform="rotate(177.369 520.193 170.015)" fill="white"/>
<path d="M517.759 175.541C518.095 175.904 517.854 176.495 517.359 176.517L512.069 176.761C511.729 176.776 511.448 176.498 511.461 176.159L511.67 170.44C511.688 169.922 512.324 169.686 512.677 170.066L517.759 175.541Z" fill="white"/>
<path d="M533.811 107.194H547.067C547.067 107.194 548.172 121.113 547.067 120.451C544.306 118.794 543.263 117.06 540.439 115.48C537.992 114.11 533.811 112.718 533.811 112.718V107.194Z" fill="#2D2D2D"/>
<path d="M312.684 102.407C314.494 102.407 315.965 103.01 317.096 104.217C318.227 105.424 318.793 106.932 318.793 108.742V174.698C318.793 176.659 318.114 178.319 316.756 179.676C315.474 180.958 313.853 181.599 311.892 181.599C310.911 181.599 309.893 181.449 308.837 181.147C307.857 180.77 307.103 180.28 306.575 179.676L262.114 123.223L265.055 121.413V175.264C265.055 177.074 264.452 178.583 263.245 179.789C262.114 180.996 260.605 181.599 258.72 181.599C256.91 181.599 255.439 180.996 254.308 179.789C253.176 178.583 252.611 177.074 252.611 175.264V109.308C252.611 107.347 253.252 105.726 254.534 104.443C255.891 103.086 257.551 102.407 259.512 102.407C260.568 102.407 261.661 102.633 262.793 103.086C263.924 103.463 264.753 104.066 265.281 104.896L308.385 159.878L306.461 161.236V108.742C306.461 106.932 307.027 105.424 308.158 104.217C309.29 103.01 310.798 102.407 312.684 102.407ZM379.471 168.363C381.432 168.363 383.054 169.004 384.336 170.286C385.694 171.493 386.372 173.077 386.372 175.038C386.372 176.923 385.694 178.507 384.336 179.789C383.054 180.996 381.432 181.599 379.471 181.599H342.703C340.742 181.599 339.083 180.958 337.726 179.676C336.443 178.319 335.802 176.659 335.802 174.698V109.308C335.802 107.347 336.481 105.726 337.839 104.443C339.196 103.086 340.931 102.407 343.043 102.407C344.853 102.407 346.437 103.086 347.794 104.443C349.227 105.726 349.944 107.347 349.944 109.308V170.286L347.455 168.363H379.471Z" fill="#2D2D2D"/>
<rect x="118.799" y="114.151" width="17.555" height="6.58311" rx="3.29155" fill="#2D2D2D"/>
<rect x="112.217" y="145.969" width="21.9437" height="6.58311" rx="3.29155" fill="#2D2D2D"/>
<rect x="125.381" y="175.594" width="15.3606" height="6.58311" rx="3.29155" fill="#2D2D2D"/>
<circle cx="112.765" cy="98.2414" r="4.93733" fill="#2D2D2D"/>
<circle cx="96.3076" cy="132.255" r="4.93733" fill="#2D2D2D"/>
<circle cx="106.18" cy="167.364" r="4.93733" fill="#2D2D2D"/>
<path d="M153.909 98.2418C155.879 97.7727 160.186 96.4582 165.074 94.9663C173.793 92.3047 184.363 89.0783 186.824 89.0783C190.664 89.0783 159.395 125.671 159.395 125.671L155.006 148.164L167.38 177.463C161.894 172.525 148.971 170.107 138.548 170.107C128.125 170.107 117.153 170.107 116.056 164.622C115.45 161.594 120.025 161.741 125.815 161.928C130.515 162.079 136.015 162.256 140.194 160.781C140.194 160.781 147.198 156.125 147.874 151.455C148.496 147.162 147.028 142.769 144.034 141.032C141.04 139.295 139.171 138.547 135.805 137.741C130.388 136.442 121.542 137.741 121.542 137.741C121.542 137.741 105.632 137.741 105.633 132.803C105.633 129.826 111.385 129.945 118.137 130.085C122.582 130.178 127.461 130.279 131.417 129.512C133.266 129.153 135.482 128.833 137.798 128.498C144.426 127.541 151.876 126.465 153.909 124.026C156.652 120.734 155.818 116.89 153.909 113.054C151.037 107.284 138.548 107.019 138.548 107.019C121.542 107.019 123.188 102.082 123.188 102.082C123.188 102.082 122.013 100.272 131.417 99.339C133.311 99.1511 136.2 99.1349 139.357 99.1172C144.561 99.088 150.495 99.0548 153.909 98.2418Z" fill="#2D2D2D"/>
<path d="M153.909 98.2418C155.879 97.7727 160.186 96.4582 165.074 94.9663C173.793 92.3047 184.363 89.0783 186.824 89.0783C190.664 89.0783 159.395 125.671 159.395 125.671L155.006 148.164L167.38 177.463C161.894 172.525 148.971 170.107 138.548 170.107C128.125 170.107 117.153 170.107 116.056 164.622C115.45 161.594 120.025 161.741 125.815 161.928C130.515 162.079 136.015 162.256 140.194 160.781C140.194 160.781 147.198 156.125 147.874 151.455C148.496 147.162 147.028 142.769 144.034 141.032C141.04 139.295 139.171 138.547 135.805 137.741C130.388 136.442 121.542 137.741 121.542 137.741C121.542 137.741 105.632 137.741 105.633 132.803C105.633 129.826 111.385 129.945 118.137 130.085C122.582 130.178 127.461 130.279 131.417 129.512C133.266 129.153 135.482 128.833 137.798 128.498C144.426 127.541 151.876 126.465 153.909 124.026C156.652 120.734 155.818 116.89 153.909 113.054C151.037 107.284 138.548 107.019 138.548 107.019C121.542 107.019 123.188 102.082 123.188 102.082C123.188 102.082 122.013 100.272 131.417 99.339C133.311 99.1511 136.2 99.1349 139.357 99.1172C144.561 99.088 150.495 99.0548 153.909 98.2418Z" stroke="#2D2D2D"/>
<path d="M215.736 89.2394C213.151 88.6572 210.455 88.464 207.733 88.6961C207.688 88.7001 207.643 88.7048 207.599 88.71C207.507 88.7213 207.411 88.7307 207.311 88.7385C207.271 88.7409 207.231 88.7448 207.191 88.7489C205.708 88.9061 204.233 89.1892 202.807 89.5914C202.778 89.5992 202.75 89.6073 202.721 89.6158C198.863 90.8069 194.991 93.1097 191.213 96.4609C191.174 96.4944 191.136 96.5295 191.1 96.5653C191.094 96.5708 191.088 96.5771 191.081 96.5829C186.274 101.301 182.039 106.26 178.493 111.321C165.945 128.166 163.607 143.093 163.857 152.65C164.118 162.61 167.144 168.998 167.603 169.912C169.42 173.886 171.935 177.481 175.08 180.597C177.224 182.721 179.573 184.529 182.067 186.026C176.248 184.339 170.785 181.246 166.242 176.745C163.098 173.629 160.582 170.034 158.764 166.059C158.306 165.146 155.28 158.758 155.019 148.798C154.769 139.241 157.107 124.314 169.655 107.469C170.459 106.32 171.3 105.176 172.175 104.04L175.797 99.3628C177.722 97.1496 180.075 94.8589 182.243 92.7306C182.25 92.7248 182.256 92.7185 182.262 92.713C182.299 92.6772 182.336 92.6421 182.375 92.6087C186.153 89.2575 190.025 86.9548 193.883 85.7635C193.912 85.755 193.94 85.7467 193.969 85.7391C195.395 85.3365 196.87 85.0538 198.353 84.8966C198.393 84.8926 198.433 84.8888 198.473 84.8862C198.574 84.8783 198.669 84.8692 198.761 84.8577C198.805 84.8524 198.85 84.8478 198.895 84.8438C204.954 84.3272 210.888 85.9085 215.736 89.2394Z" fill="#2D2D2D"/>
<path d="M223.462 100.424C228.66 105.572 230.32 113.052 227.793 119.943C227.774 119.997 227.755 120.052 227.736 120.116C225.204 128.106 227.839 135.529 229.634 139.241C229.661 139.296 229.69 139.35 229.717 139.4C229.955 139.821 230.194 140.271 230.431 140.746L230.471 140.827C234.529 149.04 234.616 158.556 230.709 166.934C229.093 170.398 226.863 173.519 224.078 176.21C211.673 188.201 191.743 188.217 179.652 176.246C177.021 173.641 174.921 170.637 173.408 167.313C173.387 167.266 173.364 167.219 173.336 167.166C173.306 167.108 170.394 161.305 170.229 152.101C170.089 144.251 171.879 136.28 175.549 128.41C177.632 123.945 180.355 119.443 183.644 115.031L183.724 114.922C187.042 110.184 191.018 105.528 195.541 101.083L195.564 101.062C198.562 98.4183 201.67 96.5464 204.566 95.6445C205.604 95.3551 206.678 95.1486 207.779 95.0289C207.946 95.0157 208.108 95 208.284 94.9798C213.964 94.5131 219.495 96.4978 223.462 100.424Z" fill="#F7A399"/>
<path d="M227.856 96.1543C234.745 102.936 237.103 113.123 233.877 122.129C231.991 128.191 234.36 134.189 235.523 136.583C235.778 137.031 236.03 137.498 236.273 137.974C236.367 138.129 236.447 138.289 236.514 138.454C243.533 152.685 240.513 169.658 228.958 180.768C214.044 195.108 189.919 194.97 175.18 180.46C171.994 177.323 169.438 173.712 167.58 169.725C167.112 168.808 164.023 162.4 163.69 152.438C163.37 142.878 165.616 127.966 178.122 111.202C181.654 106.164 185.88 101.233 190.684 96.5456C190.69 96.5399 190.696 96.5336 190.702 96.5282C190.739 96.4926 190.777 96.4577 190.815 96.4246C194.593 93.098 198.473 90.8207 202.346 89.6548C202.375 89.6464 202.404 89.6383 202.432 89.6309C203.864 89.2377 205.346 88.9646 206.838 88.8172C206.878 88.8134 206.918 88.8099 206.958 88.8076C207.06 88.8003 207.155 88.7919 207.247 88.781C207.292 88.776 207.337 88.7717 207.382 88.768C215.017 88.1698 222.48 90.8618 227.856 96.1543ZM208.009 95.6103C207.844 95.6282 207.674 95.6438 207.498 95.6562C206.445 95.7633 205.4 95.9563 204.391 96.231C201.581 97.085 198.551 98.8918 195.62 101.459C191.135 105.843 187.199 110.44 183.921 115.122C183.901 115.15 183.882 115.177 183.862 115.204C183.852 115.217 183.841 115.231 183.831 115.245C174.834 127.306 170.429 139.615 170.736 151.836C170.964 160.947 173.878 166.62 173.9 166.662C173.931 166.719 173.959 166.777 173.986 166.835C175.499 170.101 177.591 173.061 180.202 175.632C192.205 187.448 211.85 187.56 223.996 175.883C233.458 166.785 235.891 152.859 230.051 141.23C230.044 141.215 230.037 141.201 230.03 141.188C230.023 141.173 230.015 141.158 230.007 141.142C229.777 140.689 229.539 140.246 229.299 139.827C229.264 139.765 229.23 139.702 229.199 139.638C227.332 135.842 224.584 128.264 227.125 120.123C227.145 120.058 227.166 119.994 227.189 119.93C229.604 113.265 227.935 106.005 222.834 100.984C218.94 97.1502 213.54 95.1941 208.009 95.6103Z" fill="#2D2D2D"/>
<path opacity="0.15" d="M172.336 148.385C172.565 157.496 175.478 163.169 175.501 163.212C175.531 163.269 175.56 163.326 175.587 163.384C177.099 166.651 179.191 169.61 181.802 172.181C193.805 183.997 213.451 184.11 225.596 172.433C227.893 170.224 229.772 167.729 231.223 165.053C229.682 169.042 227.257 172.749 223.998 175.883C211.853 187.56 192.207 187.447 180.204 175.631C177.593 173.061 175.501 170.101 173.989 166.835C173.962 166.777 173.933 166.719 173.903 166.662C173.88 166.619 170.967 160.946 170.738 151.835C170.528 143.472 172.527 135.067 176.693 126.727C173.617 133.931 172.155 141.174 172.336 148.385Z" fill="#2D2D2D"/>
<path d="M208.346 129.911C203.26 141.036 207.451 149.239 208.893 151.535C209.064 151.772 209.233 152.019 209.394 152.269C209.718 152.773 209.578 153.437 209.075 153.775C208.572 154.114 207.884 154.008 207.514 153.534C207.491 153.505 207.287 153.242 206.982 152.76C202.341 146.395 194.641 147.089 191.488 147.701C191.122 147.806 190.755 147.89 190.394 147.951C189.798 148.052 189.224 147.683 189.085 147.109C189.025 146.862 189.055 146.613 189.155 146.397C189.287 146.112 189.541 145.884 189.871 145.788C189.888 145.783 190.277 145.67 190.931 145.54C198.751 143.209 206.207 129.097 206.282 128.955C206.563 128.417 207.233 128.195 207.793 128.455C208.352 128.714 208.598 129.36 208.346 129.911Z" fill="#FFF1CE"/>
<path d="M185.887 187.483C184.028 192.135 175.187 193.549 169.441 191.252C163.694 188.956 161.038 180.647 162.897 175.995C164.757 171.344 168.051 178.055 173.798 180.352C179.544 182.649 187.747 182.831 185.887 187.483Z" fill="#2D2D2D"/>
<path d="M227.555 178.131C230.154 182.414 226.306 190.116 221.016 193.327C215.726 196.538 207.137 194.278 204.538 189.995C201.939 185.712 208.834 184.818 214.124 181.608C219.415 178.397 224.956 173.849 227.555 178.131Z" fill="#2D2D2D"/>
<path d="M585.549 103.586C587.359 103.586 588.943 104.265 590.301 105.622C591.734 106.905 592.45 108.526 592.45 110.487V175.877C592.45 177.838 591.734 179.498 590.301 180.855C588.868 182.137 587.208 182.778 585.323 182.778C583.211 182.778 581.514 182.137 580.232 180.855C578.95 179.498 578.309 177.838 578.309 175.877V110.487C578.309 108.526 578.988 106.905 580.345 105.622C581.703 104.265 583.437 103.586 585.549 103.586ZM635.667 103.586C637.778 103.586 639.475 104.265 640.758 105.622C642.04 106.905 642.681 108.526 642.681 110.487V175.877C642.681 177.838 642.002 179.498 640.644 180.855C639.362 182.137 637.628 182.778 635.44 182.778C633.63 182.778 632.009 182.137 630.576 180.855C629.218 179.498 628.539 177.838 628.539 175.877V110.487C628.539 108.526 629.256 106.905 630.689 105.622C632.122 104.265 633.781 103.586 635.667 103.586ZM585.21 136.507H635.667V149.518H585.21V136.507ZM688.697 121.348L664.261 178.819C663.733 180.252 662.903 181.383 661.772 182.213C660.716 182.967 659.547 183.344 658.265 183.344C656.228 183.344 654.72 182.778 653.739 181.647C652.759 180.516 652.269 179.12 652.269 177.461C652.269 176.782 652.382 176.066 652.608 175.312L680.778 107.659C681.381 106.15 682.286 104.981 683.493 104.152C684.775 103.322 686.133 102.983 687.566 103.133C688.923 103.133 690.168 103.548 691.299 104.378C692.506 105.132 693.373 106.226 693.901 107.659L721.732 173.954C722.109 174.935 722.297 175.84 722.297 176.669C722.297 178.706 721.619 180.327 720.261 181.534C718.979 182.741 717.546 183.344 715.962 183.344C714.604 183.344 713.36 182.929 712.229 182.1C711.173 181.27 710.343 180.139 709.74 178.706L685.416 122.027L688.697 121.348ZM667.768 165.017L673.99 152.006H704.536L706.685 165.017H667.768Z" fill="#2D2D2D"/>
<path d="M757.144 182.779C755.032 182.779 753.297 182.138 751.94 180.856C750.582 179.498 749.903 177.839 749.903 175.878V110.261H764.611V175.878C764.611 177.839 763.894 179.498 762.461 180.856C761.103 182.138 759.331 182.779 757.144 182.779ZM732.142 116.597C730.181 116.597 728.521 115.993 727.164 114.787C725.882 113.58 725.241 111.996 725.241 110.035C725.241 108.074 725.882 106.528 727.164 105.397C728.521 104.19 730.181 103.587 732.142 103.587H782.372C784.333 103.587 785.955 104.19 787.237 105.397C788.595 106.604 789.273 108.187 789.273 110.148C789.273 112.109 788.595 113.693 787.237 114.9C785.955 116.031 784.333 116.597 782.372 116.597H732.142ZM855.679 182.779C853.567 182.779 851.87 181.912 850.588 180.177L824.455 145.785L834.75 135.264L861.788 171.013C862.844 172.446 863.372 173.992 863.372 175.652C863.372 177.764 862.58 179.498 860.996 180.856C859.412 182.138 857.64 182.779 855.679 182.779ZM857.037 103.021C858.847 103.021 860.318 103.775 861.449 105.284C862.656 106.717 863.259 108.187 863.259 109.696C863.259 111.28 862.58 112.75 861.223 114.108L813.82 159.474L813.255 143.296L851.493 105.623C853.228 103.888 855.076 103.021 857.037 103.021ZM808.164 182.779C806.052 182.779 804.355 182.138 803.073 180.856C801.791 179.498 801.15 177.839 801.15 175.878V110.488C801.15 108.527 801.828 106.905 803.186 105.623C804.543 104.265 806.278 103.587 808.39 103.587C810.502 103.587 812.161 104.265 813.368 105.623C814.65 106.905 815.291 108.527 815.291 110.488V175.878C815.291 177.839 814.65 179.498 813.368 180.856C812.086 182.138 810.351 182.779 808.164 182.779ZM904.357 121.348L879.92 178.819C879.392 180.252 878.563 181.384 877.431 182.213C876.375 182.968 875.206 183.345 873.924 183.345C871.888 183.345 870.379 182.779 869.399 181.648C868.419 180.516 867.928 179.121 867.928 177.462C867.928 176.783 868.041 176.067 868.268 175.312L896.438 107.659C897.041 106.151 897.946 104.982 899.153 104.152C900.435 103.323 901.792 102.983 903.225 103.134C904.583 103.134 905.827 103.549 906.959 104.379C908.166 105.133 909.033 106.226 909.561 107.659L937.391 173.955C937.768 174.935 937.957 175.84 937.957 176.67C937.957 178.706 937.278 180.328 935.921 181.535C934.638 182.741 933.205 183.345 931.622 183.345C930.264 183.345 929.02 182.93 927.888 182.1C926.832 181.271 926.003 180.139 925.399 178.706L901.076 122.027L904.357 121.348ZM883.427 165.017L889.65 152.007H920.195L922.345 165.017H883.427Z" fill="#2D2D2D"/>
<path d="M759.433 114.976C757.721 115.714 760.066 124.295 761.036 131.255C764.331 154.91 768.438 153.139 772.626 167.567C774.435 174.904 771.14 182.963 760.701 182.299C751.043 181.187 748.699 177.465 747.181 168.206C746.644 166.961 740.805 162.837 742.625 157.638C745.983 146.586 754.718 135.442 754.718 135.442C755.591 134.328 755.664 131.357 755.465 127.754C755.266 124.15 754.598 116.322 753.828 112.964C753.084 111.239 751.309 110.913 749.772 109.375C749.553 109.156 749.57 108.802 749.797 108.591C753.688 104.986 755.181 106.637 757.544 110.6C757.548 110.608 757.56 110.606 757.563 110.598C758.456 108.092 761.595 108.771 764.856 112.208C764.983 112.341 764.913 112.563 764.734 112.604C763.682 112.851 760.857 113.612 759.433 114.976Z" fill="white"/>
<path d="M747.181 168.206C746.644 166.961 740.805 162.837 742.625 157.638C745.983 146.586 754.718 135.442 754.718 135.442C755.591 134.328 755.664 131.357 755.465 127.754C755.266 124.15 754.598 116.322 753.828 112.964C753.084 111.239 751.309 110.913 749.772 109.375C749.553 109.156 749.57 108.802 749.797 108.591C753.688 104.986 755.181 106.637 757.544 110.6C757.548 110.608 757.56 110.606 757.563 110.598C758.456 108.092 761.595 108.771 764.856 112.208C764.983 112.341 764.913 112.563 764.734 112.604C763.682 112.851 760.857 113.612 759.433 114.976C757.721 115.714 760.066 124.295 761.036 131.255C764.331 154.91 768.438 153.139 772.626 167.567C774.435 174.904 771.14 182.963 760.701 182.299C751.043 181.187 748.699 177.465 747.181 168.206ZM747.181 168.206C748.562 157.278 755.874 158.54 753.569 148.479" stroke="#2D2D2D" stroke-width="1.17846"/>
<path d="M766.219 157.321C770.376 164.638 770.503 170.373 768.506 173.98C766.598 177.426 762.638 179.129 757.869 178.375C758.932 172.23 758.915 166.01 758.895 158.44L758.894 158.4C758.877 152.015 758.857 144.639 759.466 135.471C759.467 135.488 759.469 135.505 759.471 135.522C759.771 138.401 760.348 142.116 761.801 147.067C762.785 150.425 764.192 153.753 766.219 157.321Z" fill="#2D2D2D" stroke="#2D2D2D" stroke-width="1.17846"/>
</g>
<defs>
<filter id="filter0_d_83_374" x="-77.2328" y="-44.5305" width="1175.9" height="430.763" filterUnits="userSpaceOnUse" color-interpolation-filters="sRGB">
<feFlood flood-opacity="0" result="BackgroundImageFix"/>
<feColorMatrix in="SourceAlpha" type="matrix" values="0 0 0 0 0 0 0 0 0 0 0 0 0 0 0 0 0 0 127 0" result="hardAlpha"/>
<feOffset dx="-4.35114" dy="4.35114"/>
<feGaussianBlur stdDeviation="36.4408"/>
<feComposite in2="hardAlpha" operator="out"/>
<feColorMatrix type="matrix" values="0 0 0 0 0 0 0 0 0 0 0 0 0 0 0 0 0 0 0.15 0"/>
<feBlend mode="normal" in2="BackgroundImageFix" result="effect1_dropShadow_83_374"/>
<feBlend mode="normal" in="SourceGraphic" in2="effect1_dropShadow_83_374" result="shape"/>
</filter>
<linearGradient id="paint0_linear_83_374" x1="432.551" y1="102.525" x2="432.551" y2="127.113" gradientUnits="userSpaceOnUse">
<stop stop-opacity="0.25"/>
<stop offset="1"/>
</linearGradient>
<linearGradient id="paint1_linear_83_374" x1="524.783" y1="179.654" x2="523.697" y2="156.03" gradientUnits="userSpaceOnUse">
<stop stop-opacity="0.25"/>
<stop offset="1"/>
</linearGradient>
</defs>
</svg>
